<svg id="visual" viewBox="0 0 1920 1080" width="1920" height="1080" xmlns="http://www.w3.org/2000/svg" xmlns:xlink="http://www.w3.org/1999/xlink" version="1.1"><g stroke-width="1" stroke-linejoin="bevel"><path d="M973 585.1L1085 491.9L1007 506.9Z" fill="#143d5c" stroke="#143d5c"></path><path d="M973 585.1L1151 642.1L1085 491.9Z" fill="#24557a" stroke="#24557a"></path><path d="M973 585.1L1141 726.4L1151 642.1Z" fill="#123957" stroke="#123957"></path><path d="M1278 627.1L1238 451.9L1151 642.1Z" fill="#1a4566" stroke="#1a4566"></path><path d="M1151 642.1L1238 451.9L1085 491.9Z" fill="#24557a" stroke="#24557a"></path><path d="M998 280.6L827 508.9L1007 506.9Z" fill="#123957" stroke="#123957"></path><path d="M1264 762.4L1278 627.1L1151 642.1Z" fill="#1a4566" stroke="#1a4566"></path><path d="M998 280.6L1007 506.9L1085 491.9Z" fill="#092e49" stroke="#092e49"></path><path d="M1007 506.9L827 508.9L973 585.1Z" fill="#215175" stroke="#215175"></path><path d="M973 585.1L939 807.4L1141 726.4Z" fill="#1a4566" stroke="#1a4566"></path><path d="M836 733.4L939 807.4L973 585.1Z" fill="#1c496b" stroke="#1c496b"></path><path d="M764 593.1L836 733.4L973 585.1Z" fill="#0f3552" stroke="#0f3552"></path><path d="M1141 726.4L1264 762.4L1151 642.1Z" fill="#1c496b" stroke="#1c496b"></path><path d="M1115 910.7L1264 762.4L1141 726.4Z" fill="#215175" stroke="#215175"></path><path d="M827 508.9L764 593.1L973 585.1Z" fill="#092e49" stroke="#092e49"></path><path d="M1238 451.9L1165 297.6L1085 491.9Z" fill="#0f3552" stroke="#0f3552"></path><path d="M1455 457.9L1255 349.6L1238 451.9Z" fill="#1a4566" stroke="#1a4566"></path><path d="M1238 451.9L1255 349.6L1165 297.6Z" fill="#0c324e" stroke="#0c324e"></path><path d="M1165 297.6L998 280.6L1085 491.9Z" fill="#143d5c" stroke="#143d5c"></path><path d="M939 807.4L1115 910.7L1141 726.4Z" fill="#174161" stroke="#174161"></path><path d="M761 908.7L968 911.7L939 807.4Z" fill="#1a4566" stroke="#1a4566"></path><path d="M939 807.4L968 911.7L1115 910.7Z" fill="#24557a" stroke="#24557a"></path><path d="M642 472.9L684 662.1L764 593.1Z" fill="#24557a" stroke="#24557a"></path><path d="M764 593.1L684 662.1L836 733.4Z" fill="#1c496b" stroke="#1c496b"></path><path d="M836 733.4L761 908.7L939 807.4Z" fill="#1c496b" stroke="#1c496b"></path><path d="M642 472.9L764 593.1L827 508.9Z" fill="#1f4d70" stroke="#1f4d70"></path><path d="M998 280.6L759 319.6L827 508.9Z" fill="#092e49" stroke="#092e49"></path><path d="M1426 744.4L1456 637.1L1278 627.1Z" fill="#0f3552" stroke="#0f3552"></path><path d="M1278 627.1L1455 457.9L1238 451.9Z" fill="#215175" stroke="#215175"></path><path d="M1426 744.4L1278 627.1L1264 762.4Z" fill="#092e49" stroke="#092e49"></path><path d="M1323 943.7L1426 744.4L1264 762.4Z" fill="#1a4566" stroke="#1a4566"></path><path d="M1456 637.1L1455 457.9L1278 627.1Z" fill="#1c496b" stroke="#1c496b"></path><path d="M1255 349.6L1315 188.3L1165 297.6Z" fill="#143d5c" stroke="#143d5c"></path><path d="M759 319.6L642 472.9L827 508.9Z" fill="#215175" stroke="#215175"></path><path d="M1133 113.3L919 164.3L998 280.6Z" fill="#1c496b" stroke="#1c496b"></path><path d="M998 280.6L919 164.3L759 319.6Z" fill="#0f3552" stroke="#0f3552"></path><path d="M627 794.4L761 908.7L836 733.4Z" fill="#1a4566" stroke="#1a4566"></path><path d="M1248 1080L1323 943.7L1115 910.7Z" fill="#123957" stroke="#123957"></path><path d="M1115 910.7L1323 943.7L1264 762.4Z" fill="#1c496b" stroke="#1c496b"></path><path d="M991 1080L1115 910.7L968 911.7Z" fill="#215175" stroke="#215175"></path><path d="M1455 457.9L1435 318.6L1255 349.6Z" fill="#215175" stroke="#215175"></path><path d="M1165 297.6L1133 113.3L998 280.6Z" fill="#0c324e" stroke="#0c324e"></path><path d="M1435 318.6L1315 188.3L1255 349.6Z" fill="#215175" stroke="#215175"></path><path d="M1315 188.3L1133 113.3L1165 297.6Z" fill="#215175" stroke="#215175"></path><path d="M684 121.3L648 321.6L759 319.6Z" fill="#1a4566" stroke="#1a4566"></path><path d="M759 319.6L648 321.6L642 472.9Z" fill="#1f4d70" stroke="#1f4d70"></path><path d="M528 643.1L627 794.4L684 662.1Z" fill="#1c496b" stroke="#1c496b"></path><path d="M684 662.1L627 794.4L836 733.4Z" fill="#0c324e" stroke="#0c324e"></path><path d="M528 643.1L684 662.1L642 472.9Z" fill="#123957" stroke="#123957"></path><path d="M1426 744.4L1552 607.1L1456 637.1Z" fill="#215175" stroke="#215175"></path><path d="M1456 637.1L1552 607.1L1455 457.9Z" fill="#1a4566" stroke="#1a4566"></path><path d="M1455 457.9L1558 465.9L1435 318.6Z" fill="#123957" stroke="#123957"></path><path d="M1613 798.4L1552 607.1L1426 744.4Z" fill="#123957" stroke="#123957"></path><path d="M919 164.3L842 121.3L759 319.6Z" fill="#174161" stroke="#174161"></path><path d="M989 0L842 121.3L919 164.3Z" fill="#123957" stroke="#123957"></path><path d="M791 1080L991 1080L968 911.7Z" fill="#174161" stroke="#174161"></path><path d="M1552 607.1L1558 465.9L1455 457.9Z" fill="#092e49" stroke="#092e49"></path><path d="M991 1080L1154 1080L1115 910.7Z" fill="#1a4566" stroke="#1a4566"></path><path d="M627 794.4L680 924.7L761 908.7Z" fill="#1a4566" stroke="#1a4566"></path><path d="M761 908.7L791 1080L968 911.7Z" fill="#143d5c" stroke="#143d5c"></path><path d="M1154 1080L1248 1080L1115 910.7Z" fill="#0f3552" stroke="#0f3552"></path><path d="M1323 943.7L1456 968.7L1426 744.4Z" fill="#143d5c" stroke="#143d5c"></path><path d="M456 506.9L528 643.1L642 472.9Z" fill="#174161" stroke="#174161"></path><path d="M627 794.4L505 945.7L680 924.7Z" fill="#1f4d70" stroke="#1f4d70"></path><path d="M1488 1080L1456 968.7L1323 943.7Z" fill="#1c496b" stroke="#1c496b"></path><path d="M680 924.7L791 1080L761 908.7Z" fill="#1c496b" stroke="#1c496b"></path><path d="M1258 0L1141 0L1133 113.3Z" fill="#123957" stroke="#123957"></path><path d="M1435 318.6L1408 112.3L1315 188.3Z" fill="#1f4d70" stroke="#1f4d70"></path><path d="M1554 265.6L1408 112.3L1435 318.6Z" fill="#092e49" stroke="#092e49"></path><path d="M1141 0L989 0L1133 113.3Z" fill="#215175" stroke="#215175"></path><path d="M1133 113.3L989 0L919 164.3Z" fill="#123957" stroke="#123957"></path><path d="M1258 0L1133 113.3L1315 188.3Z" fill="#143d5c" stroke="#143d5c"></path><path d="M1558 465.9L1554 265.6L1435 318.6Z" fill="#24557a" stroke="#24557a"></path><path d="M528 643.1L500 762.4L627 794.4Z" fill="#092e49" stroke="#092e49"></path><path d="M680 924.7L606 1080L791 1080Z" fill="#143d5c" stroke="#143d5c"></path><path d="M842 121.3L684 121.3L759 319.6Z" fill="#0c324e" stroke="#0c324e"></path><path d="M648 321.6L506 354.6L642 472.9Z" fill="#1f4d70" stroke="#1f4d70"></path><path d="M846 0L684 121.3L842 121.3Z" fill="#092e49" stroke="#092e49"></path><path d="M1456 968.7L1613 798.4L1426 744.4Z" fill="#174161" stroke="#174161"></path><path d="M1552 607.1L1733 607.1L1558 465.9Z" fill="#1f4d70" stroke="#1f4d70"></path><path d="M1558 465.9L1719 314.6L1554 265.6Z" fill="#1a4566" stroke="#1a4566"></path><path d="M504 142.3L506 354.6L648 321.6Z" fill="#0c324e" stroke="#0c324e"></path><path d="M528 643.1L331 731.4L500 762.4Z" fill="#1f4d70" stroke="#1f4d70"></path><path d="M506 354.6L456 506.9L642 472.9Z" fill="#1a4566" stroke="#1a4566"></path><path d="M1408 112.3L1258 0L1315 188.3Z" fill="#174161" stroke="#174161"></path><path d="M989 0L846 0L842 121.3Z" fill="#092e49" stroke="#092e49"></path><path d="M1248 1080L1488 1080L1323 943.7Z" fill="#174161" stroke="#174161"></path><path d="M1456 968.7L1608 960.7L1613 798.4Z" fill="#092e49" stroke="#092e49"></path><path d="M331 731.4L505 945.7L500 762.4Z" fill="#215175" stroke="#215175"></path><path d="M500 762.4L505 945.7L627 794.4Z" fill="#0c324e" stroke="#0c324e"></path><path d="M1488 1080L1608 960.7L1456 968.7Z" fill="#143d5c" stroke="#143d5c"></path><path d="M1747 764.4L1733 607.1L1613 798.4Z" fill="#092e49" stroke="#092e49"></path><path d="M1613 798.4L1733 607.1L1552 607.1Z" fill="#24557a" stroke="#24557a"></path><path d="M505 945.7L606 1080L680 924.7Z" fill="#215175" stroke="#215175"></path><path d="M1719 314.6L1586 141.3L1554 265.6Z" fill="#1a4566" stroke="#1a4566"></path><path d="M1554 265.6L1586 141.3L1408 112.3Z" fill="#174161" stroke="#174161"></path><path d="M1408 112.3L1431 0L1258 0Z" fill="#215175" stroke="#215175"></path><path d="M1576 0L1431 0L1408 112.3Z" fill="#174161" stroke="#174161"></path><path d="M1733 607.1L1754 464.9L1558 465.9Z" fill="#143d5c" stroke="#143d5c"></path><path d="M650 0L504 142.3L684 121.3Z" fill="#1a4566" stroke="#1a4566"></path><path d="M684 121.3L504 142.3L648 321.6Z" fill="#143d5c" stroke="#143d5c"></path><path d="M506 354.6L343 430.9L456 506.9Z" fill="#092e49" stroke="#092e49"></path><path d="M846 0L650 0L684 121.3Z" fill="#0f3552" stroke="#0f3552"></path><path d="M1754 464.9L1719 314.6L1558 465.9Z" fill="#092e49" stroke="#092e49"></path><path d="M1777 889.7L1747 764.4L1613 798.4Z" fill="#215175" stroke="#215175"></path><path d="M1733 607.1L1920 579.1L1754 464.9Z" fill="#1f4d70" stroke="#1f4d70"></path><path d="M324 295.6L343 430.9L506 354.6Z" fill="#0f3552" stroke="#0f3552"></path><path d="M456 506.9L317 611.1L528 643.1Z" fill="#123957" stroke="#123957"></path><path d="M1488 1080L1600 1080L1608 960.7Z" fill="#143d5c" stroke="#143d5c"></path><path d="M1608 960.7L1777 889.7L1613 798.4Z" fill="#1c496b" stroke="#1c496b"></path><path d="M343 430.9L317 611.1L456 506.9Z" fill="#0f3552" stroke="#0f3552"></path><path d="M317 611.1L331 731.4L528 643.1Z" fill="#1a4566" stroke="#1a4566"></path><path d="M505 945.7L449 1080L606 1080Z" fill="#1a4566" stroke="#1a4566"></path><path d="M1734 0L1576 0L1586 141.3Z" fill="#24557a" stroke="#24557a"></path><path d="M1586 141.3L1576 0L1408 112.3Z" fill="#1a4566" stroke="#1a4566"></path><path d="M1798 1080L1777 889.7L1608 960.7Z" fill="#143d5c" stroke="#143d5c"></path><path d="M1920 727.4L1920 579.1L1733 607.1Z" fill="#143d5c" stroke="#143d5c"></path><path d="M504 142.3L324 295.6L506 354.6Z" fill="#092e49" stroke="#092e49"></path><path d="M343 430.9L173 500.9L317 611.1Z" fill="#0f3552" stroke="#0f3552"></path><path d="M295 200.3L324 295.6L504 142.3Z" fill="#24557a" stroke="#24557a"></path><path d="M291 960.7L449 1080L505 945.7Z" fill="#215175" stroke="#215175"></path><path d="M650 0L485 0L504 142.3Z" fill="#0c324e" stroke="#0c324e"></path><path d="M1920 192.3L1767 119.3L1719 314.6Z" fill="#0f3552" stroke="#0f3552"></path><path d="M1719 314.6L1767 119.3L1586 141.3Z" fill="#123957" stroke="#123957"></path><path d="M1920 330.6L1719 314.6L1754 464.9Z" fill="#215175" stroke="#215175"></path><path d="M274 0L295 200.3L504 142.3Z" fill="#1c496b" stroke="#1c496b"></path><path d="M204 290.6L173 500.9L343 430.9Z" fill="#1c496b" stroke="#1c496b"></path><path d="M1920 727.4L1733 607.1L1747 764.4Z" fill="#1a4566" stroke="#1a4566"></path><path d="M149 887.7L291 960.7L331 731.4Z" fill="#143d5c" stroke="#143d5c"></path><path d="M331 731.4L291 960.7L505 945.7Z" fill="#174161" stroke="#174161"></path><path d="M147 759.4L331 731.4L317 611.1Z" fill="#143d5c" stroke="#143d5c"></path><path d="M1920 579.1L1920 475.9L1754 464.9Z" fill="#215175" stroke="#215175"></path><path d="M1777 889.7L1920 727.4L1747 764.4Z" fill="#0f3552" stroke="#0f3552"></path><path d="M291 960.7L338 1080L449 1080Z" fill="#215175" stroke="#215175"></path><path d="M1920 0L1734 0L1767 119.3Z" fill="#24557a" stroke="#24557a"></path><path d="M1767 119.3L1734 0L1586 141.3Z" fill="#123957" stroke="#123957"></path><path d="M204 290.6L343 430.9L324 295.6Z" fill="#1c496b" stroke="#1c496b"></path><path d="M1600 1080L1798 1080L1608 960.7Z" fill="#1a4566" stroke="#1a4566"></path><path d="M1777 889.7L1920 944.7L1920 727.4Z" fill="#092e49" stroke="#092e49"></path><path d="M1920 475.9L1920 330.6L1754 464.9Z" fill="#1f4d70" stroke="#1f4d70"></path><path d="M193 182.3L204 290.6L295 200.3Z" fill="#174161" stroke="#174161"></path><path d="M295 200.3L204 290.6L324 295.6Z" fill="#24557a" stroke="#24557a"></path><path d="M173 500.9L142 610.1L317 611.1Z" fill="#143d5c" stroke="#143d5c"></path><path d="M291 960.7L176 1080L338 1080Z" fill="#123957" stroke="#123957"></path><path d="M0 587.1L142 610.1L0 504.9Z" fill="#143d5c" stroke="#143d5c"></path><path d="M142 610.1L147 759.4L317 611.1Z" fill="#215175" stroke="#215175"></path><path d="M1798 1080L1920 944.7L1777 889.7Z" fill="#1c496b" stroke="#1c496b"></path><path d="M1920 330.6L1920 192.3L1719 314.6Z" fill="#174161" stroke="#174161"></path><path d="M274 0L193 182.3L295 200.3Z" fill="#215175" stroke="#215175"></path><path d="M0 504.9L142 610.1L173 500.9Z" fill="#24557a" stroke="#24557a"></path><path d="M0 891.7L149 887.7L147 759.4Z" fill="#0c324e" stroke="#0c324e"></path><path d="M147 759.4L149 887.7L331 731.4Z" fill="#24557a" stroke="#24557a"></path><path d="M485 0L274 0L504 142.3Z" fill="#1c496b" stroke="#1c496b"></path><path d="M1798 1080L1920 1080L1920 944.7Z" fill="#0f3552" stroke="#0f3552"></path><path d="M149 887.7L176 1080L291 960.7Z" fill="#1a4566" stroke="#1a4566"></path><path d="M1920 192.3L1920 0L1767 119.3Z" fill="#215175" stroke="#215175"></path><path d="M142 610.1L0 752.4L147 759.4Z" fill="#123957" stroke="#123957"></path><path d="M149 887.7L0 1080L176 1080Z" fill="#215175" stroke="#215175"></path><path d="M0 504.9L173 500.9L0 328.6Z" fill="#215175" stroke="#215175"></path><path d="M173 500.9L204 290.6L0 328.6Z" fill="#1a4566" stroke="#1a4566"></path><path d="M0 328.6L204 290.6L193 182.3Z" fill="#1c496b" stroke="#1c496b"></path><path d="M274 0L161 0L193 182.3Z" fill="#0f3552" stroke="#0f3552"></path><path d="M0 587.1L0 752.4L142 610.1Z" fill="#1f4d70" stroke="#1f4d70"></path><path d="M0 113.3L0 328.6L193 182.3Z" fill="#092e49" stroke="#092e49"></path><path d="M0 752.4L0 891.7L147 759.4Z" fill="#174161" stroke="#174161"></path><path d="M161 0L0 113.3L193 182.3Z" fill="#174161" stroke="#174161"></path><path d="M0 891.7L0 1080L149 887.7Z" fill="#1f4d70" stroke="#1f4d70"></path><path d="M161 0L0 0L0 113.3Z" fill="#092e49" stroke="#092e49"></path></g></svg>