<svg id="visual" viewBox="0 0 2000 300" width="2000" height="300" xmlns="http://www.w3.org/2000/svg" xmlns:xlink="http://www.w3.org/1999/xlink" version="1.1"><g stroke-width="1" stroke-linejoin="bevel"><path d="M1082.9 81L1093.9 0L1008.1 0Z" fill="#663a16" stroke="#663a16"></path><path d="M1082.9 81L1201.8 0L1093.9 0Z" fill="#874916" stroke="#874916"></path><path d="M1082.9 81L1244.8 164L1201.8 0Z" fill="#ab5914" stroke="#ab5914"></path><path d="M1008.1 0L886.1 244L1082.9 81Z" fill="#874916" stroke="#874916"></path><path d="M1082.9 81L1009.9 300L1244.8 164Z" fill="#bd6013" stroke="#bd6013"></path><path d="M810.2 0L798.2 66L1008.1 0Z" fill="#d06812" stroke="#d06812"></path><path d="M798.2 66L886.1 244L1008.1 0Z" fill="#874916" stroke="#874916"></path><path d="M991.1 300L1009.9 300L1082.9 81Z" fill="#995115" stroke="#995115"></path><path d="M886.1 244L991.1 300L1082.9 81Z" fill="#995115" stroke="#995115"></path><path d="M1244.8 164L1371.6 100L1201.8 0Z" fill="#874916" stroke="#874916"></path><path d="M1325.8 300L1371.6 100L1244.8 164Z" fill="#563216" stroke="#563216"></path><path d="M676.4 193L816.2 300L886.1 244Z" fill="#563216" stroke="#563216"></path><path d="M886.1 244L816.2 300L991.1 300Z" fill="#663a16" stroke="#663a16"></path><path d="M1009.9 300L1325.8 300L1244.8 164Z" fill="#d06812" stroke="#d06812"></path><path d="M533.4 0L676.4 193L798.2 66Z" fill="#d06812" stroke="#d06812"></path><path d="M798.2 66L676.4 193L886.1 244Z" fill="#663a16" stroke="#663a16"></path><path d="M1532.5 180L1468.6 0L1371.6 100Z" fill="#462b15" stroke="#462b15"></path><path d="M1371.6 100L1468.6 0L1201.8 0Z" fill="#f7770f" stroke="#f7770f"></path><path d="M1325.8 300L1416.6 300L1371.6 100Z" fill="#874916" stroke="#874916"></path><path d="M1416.6 300L1532.5 180L1371.6 100Z" fill="#764216" stroke="#764216"></path><path d="M1440.5 300L1532.5 180L1416.6 300Z" fill="#462b15" stroke="#462b15"></path><path d="M810.2 0L533.4 0L798.2 66Z" fill="#995115" stroke="#995115"></path><path d="M474.5 107L569.4 300L676.4 193Z" fill="#563216" stroke="#563216"></path><path d="M676.4 193L569.4 300L816.2 300Z" fill="#ab5914" stroke="#ab5914"></path><path d="M1532.5 180L1613.5 0L1468.6 0Z" fill="#ab5914" stroke="#ab5914"></path><path d="M1440.5 300L1597.3 205L1532.5 180Z" fill="#995115" stroke="#995115"></path><path d="M1532.5 180L1597.3 205L1613.5 0Z" fill="#e36f11" stroke="#e36f11"></path><path d="M533.4 0L474.5 107L676.4 193Z" fill="#bd6013" stroke="#bd6013"></path><path d="M474.5 0L474.5 107L533.4 0Z" fill="#d06812" stroke="#d06812"></path><path d="M1597.3 205L1659.3 0L1613.5 0Z" fill="#bd6013" stroke="#bd6013"></path><path d="M474.5 0L385.7 0L474.5 107Z" fill="#563216" stroke="#563216"></path><path d="M474.5 107L437.5 300L569.4 300Z" fill="#d06812" stroke="#d06812"></path><path d="M262.7 300L437.5 300L220.7 140Z" fill="#563216" stroke="#563216"></path><path d="M1440.5 300L1768.3 300L1597.3 205Z" fill="#bd6013" stroke="#bd6013"></path><path d="M1868.2 125L1833.2 0L1659.3 0Z" fill="#d06812" stroke="#d06812"></path><path d="M1868.2 125L1659.3 0L1597.3 205Z" fill="#663a16" stroke="#663a16"></path><path d="M1768.3 300L1868.2 125L1597.3 205Z" fill="#e36f11" stroke="#e36f11"></path><path d="M1788.2 300L1868.2 125L1768.3 300Z" fill="#f7770f" stroke="#f7770f"></path><path d="M220.7 140L437.5 300L474.5 107Z" fill="#e36f11" stroke="#e36f11"></path><path d="M385.7 0L220.7 140L474.5 107Z" fill="#f7770f" stroke="#f7770f"></path><path d="M218.8 0L220.7 140L385.7 0Z" fill="#663a16" stroke="#663a16"></path><path d="M220.7 140L250.8 300L262.7 300Z" fill="#bd6013" stroke="#bd6013"></path><path d="M2000 300L2000 57L1868.2 125Z" fill="#e36f11" stroke="#e36f11"></path><path d="M1868.2 125L2000 57L1833.2 0Z" fill="#f7770f" stroke="#f7770f"></path><path d="M2000 57L2000 0L1833.2 0Z" fill="#563216" stroke="#563216"></path><path d="M218.8 0L100.8 58L220.7 140Z" fill="#764216" stroke="#764216"></path><path d="M220.7 140L0 300L250.8 300Z" fill="#563216" stroke="#563216"></path><path d="M1788.2 300L2000 300L1868.2 125Z" fill="#e36f11" stroke="#e36f11"></path><path d="M0 0L0 55L100.8 58Z" fill="#764216" stroke="#764216"></path><path d="M100.8 58L0 300L220.7 140Z" fill="#e36f11" stroke="#e36f11"></path><path d="M218.8 0L0 0L100.8 58Z" fill="#462b15" stroke="#462b15"></path><path d="M0 55L0 300L100.8 58Z" fill="#e36f11" stroke="#e36f11"></path></g></svg>