<svg id="visual" viewBox="0 0 960 540" width="960" height="540" xmlns="http://www.w3.org/2000/svg" xmlns:xlink="http://www.w3.org/1999/xlink" version="1.1"><rect x="0" y="0" width="960" height="540" fill="#f6f6f6"></rect><defs><linearGradient id="grad1_0" x1="43.8%" y1="0%" x2="100%" y2="100%"><stop offset="14.444444444444446%" stop-color="#ffffff" stop-opacity="1"></stop><stop offset="85.55555555555554%" stop-color="#ffffff" stop-opacity="1"></stop></linearGradient></defs><defs><linearGradient id="grad2_0" x1="0%" y1="0%" x2="56.3%" y2="100%"><stop offset="14.444444444444446%" stop-color="#ffffff" stop-opacity="1"></stop><stop offset="85.55555555555554%" stop-color="#ffffff" stop-opacity="1"></stop></linearGradient></defs><g transform="translate(960, 0)"><path d="M0 297C-24 290.4 -48 283.8 -75.1 280.1C-102.1 276.4 -132.1 275.7 -148.5 257.2C-164.9 238.8 -167.7 202.6 -180.3 180.3C-192.9 158 -215.4 149.6 -232.1 134C-248.8 118.4 -259.6 95.7 -269.5 72.2C-279.3 48.7 -288.2 24.3 -297 0L0 0Z" fill="#fff"></path></g><g transform="translate(0, 540)"><path d="M0 -297C25 -285.7 50 -274.4 69.9 -260.8C89.7 -247.2 104.5 -231.4 130.5 -226C156.5 -220.6 193.9 -225.6 210 -210C226.1 -194.4 220.9 -158.2 231.2 -133.5C241.6 -108.8 267.5 -95.6 281.1 -75.3C294.6 -55 295.8 -27.5 297 0L0 0Z" fill="#fff"></path></g></svg>