<svg id="visual" viewBox="0 0 900 600" width="900" height="600" xmlns="http://www.w3.org/2000/svg" xmlns:xlink="http://www.w3.org/1999/xlink" version="1.1"><g stroke-width="1" stroke-linejoin="bevel"><path d="M394 285.9L359 199.4L313 279.1Z" fill="#175416" stroke="#175416"></path><path d="M394 285.9L438 206.4L359 199.4Z" fill="#186718" stroke="#186718"></path><path d="M359 199.4L242 241.1L313 279.1Z" fill="#196d18" stroke="#196d18"></path><path d="M338 110.7L305 143.4L359 199.4Z" fill="#186017" stroke="#186017"></path><path d="M359 199.4L305 143.4L242 241.1Z" fill="#164e15" stroke="#164e15"></path><path d="M253 391.9L316 370.9L313 279.1Z" fill="#1a8018" stroke="#1a8018"></path><path d="M313 279.1L316 370.9L394 285.9Z" fill="#197318" stroke="#197318"></path><path d="M438 206.4L338 110.7L359 199.4Z" fill="#197318" stroke="#197318"></path><path d="M394 285.9L504 219.1L438 206.4Z" fill="#196d18" stroke="#196d18"></path><path d="M438 206.4L483 128.7L338 110.7Z" fill="#1a8618" stroke="#1a8618"></path><path d="M511 325.9L504 219.1L394 285.9Z" fill="#197318" stroke="#197318"></path><path d="M185 308.1L208 286.9L73 285.1Z" fill="#1a8d18" stroke="#1a8d18"></path><path d="M242 241.1L208 286.9L313 279.1Z" fill="#186017" stroke="#186017"></path><path d="M483 457.6L511 325.9L394 285.9Z" fill="#186718" stroke="#186718"></path><path d="M208 286.9L253 391.9L313 279.1Z" fill="#196d18" stroke="#196d18"></path><path d="M316 370.9L483 457.6L394 285.9Z" fill="#186718" stroke="#186718"></path><path d="M504 219.1L483 128.7L438 206.4Z" fill="#1a8018" stroke="#1a8018"></path><path d="M61 196.4L208 286.9L242 241.1Z" fill="#175416" stroke="#175416"></path><path d="M208 286.9L185 308.1L253 391.9Z" fill="#175416" stroke="#175416"></path><path d="M253 391.9L316 429.6L316 370.9Z" fill="#175416" stroke="#175416"></path><path d="M338 110.7L253 94.7L305 143.4Z" fill="#196d18" stroke="#196d18"></path><path d="M305 143.4L197 118.4L242 241.1Z" fill="#1a8d18" stroke="#1a8d18"></path><path d="M298 0L253 94.7L338 110.7Z" fill="#175416" stroke="#175416"></path><path d="M511 325.9L546 282.1L504 219.1Z" fill="#186017" stroke="#186017"></path><path d="M504 219.1L540 174.4L483 128.7Z" fill="#164e15" stroke="#164e15"></path><path d="M573 184.4L540 174.4L504 219.1Z" fill="#196d18" stroke="#196d18"></path><path d="M253 94.7L197 118.4L305 143.4Z" fill="#197318" stroke="#197318"></path><path d="M546 282.1L573 184.4L504 219.1Z" fill="#175416" stroke="#175416"></path><path d="M540 174.4L592 129.7L483 128.7Z" fill="#1a7a18" stroke="#1a7a18"></path><path d="M291 483.3L318 478.6L316 429.6Z" fill="#197318" stroke="#197318"></path><path d="M316 429.6L483 457.6L316 370.9Z" fill="#1a8018" stroke="#1a8018"></path><path d="M291 483.3L316 429.6L253 391.9Z" fill="#197318" stroke="#197318"></path><path d="M139 471.3L291 483.3L253 391.9Z" fill="#1a8018" stroke="#1a8018"></path><path d="M528 462.6L483 457.6L515 478.3Z" fill="#196d18" stroke="#196d18"></path><path d="M318 478.6L483 457.6L316 429.6Z" fill="#186017" stroke="#186017"></path><path d="M511 325.9L578 397.9L546 282.1Z" fill="#175a16" stroke="#175a16"></path><path d="M407 0L338 110.7L483 128.7Z" fill="#1a7a18" stroke="#1a7a18"></path><path d="M407 0L406 0L338 110.7Z" fill="#1a7a18" stroke="#1a7a18"></path><path d="M253 94.7L149 61.7L197 118.4Z" fill="#1a8018" stroke="#1a8018"></path><path d="M572 0L407 0L483 128.7Z" fill="#1a8018" stroke="#1a8018"></path><path d="M406 0L298 0L338 110.7Z" fill="#1a7a18" stroke="#1a7a18"></path><path d="M695 219.1L592 129.7L573 184.4Z" fill="#1a8018" stroke="#1a8018"></path><path d="M573 184.4L592 129.7L540 174.4Z" fill="#164e15" stroke="#164e15"></path><path d="M483 457.6L578 397.9L511 325.9Z" fill="#186017" stroke="#186017"></path><path d="M546 282.1L660 293.1L573 184.4Z" fill="#1a7a18" stroke="#1a7a18"></path><path d="M185 308.1L137 412.6L253 391.9Z" fill="#186017" stroke="#186017"></path><path d="M107 392.9L137 412.6L185 308.1Z" fill="#1a8618" stroke="#1a8618"></path><path d="M515 478.3L483 457.6L479 555.3Z" fill="#1a7a18" stroke="#1a7a18"></path><path d="M483 457.6L528 462.6L578 397.9Z" fill="#1a8018" stroke="#1a8018"></path><path d="M380 559.3L483 457.6L318 478.6Z" fill="#164e15" stroke="#164e15"></path><path d="M592 129.7L588 94.7L483 128.7Z" fill="#175416" stroke="#175416"></path><path d="M298 0L149 61.7L253 94.7Z" fill="#175416" stroke="#175416"></path><path d="M61 196.4L73 285.1L208 286.9Z" fill="#175a16" stroke="#175a16"></path><path d="M61 196.4L242 241.1L197 118.4Z" fill="#1a8618" stroke="#1a8618"></path><path d="M73 285.1L107 392.9L185 308.1Z" fill="#1a7a18" stroke="#1a7a18"></path><path d="M137 412.6L139 471.3L253 391.9Z" fill="#1a8018" stroke="#1a8018"></path><path d="M107 392.9L125 441.6L137 412.6Z" fill="#186718" stroke="#186718"></path><path d="M98 59.7L61 196.4L197 118.4Z" fill="#175416" stroke="#175416"></path><path d="M680 457.3L660 293.1L578 397.9Z" fill="#1a7a18" stroke="#1a7a18"></path><path d="M578 397.9L660 293.1L546 282.1Z" fill="#175416" stroke="#175416"></path><path d="M592 129.7L707 137.7L588 94.7Z" fill="#175a16" stroke="#175a16"></path><path d="M398 600L380 559.3L238 600Z" fill="#175a16" stroke="#175a16"></path><path d="M291 483.3L380 559.3L318 478.6Z" fill="#164e15" stroke="#164e15"></path><path d="M125 441.6L139 471.3L137 412.6Z" fill="#1a8d18" stroke="#1a8d18"></path><path d="M129 0L98 59.7L149 61.7Z" fill="#164e15" stroke="#164e15"></path><path d="M149 61.7L98 59.7L197 118.4Z" fill="#197318" stroke="#197318"></path><path d="M515 478.3L592 480.6L528 462.6Z" fill="#175a16" stroke="#175a16"></path><path d="M528 462.6L592 480.6L578 397.9Z" fill="#175416" stroke="#175416"></path><path d="M380 559.3L479 555.3L483 457.6Z" fill="#175416" stroke="#175416"></path><path d="M524 600L592 480.6L515 478.3Z" fill="#1a8018" stroke="#1a8018"></path><path d="M579 0L572 0L588 94.7Z" fill="#186017" stroke="#186017"></path><path d="M588 94.7L572 0L483 128.7Z" fill="#175416" stroke="#175416"></path><path d="M750 0L579 0L588 94.7Z" fill="#186718" stroke="#186718"></path><path d="M298 0L129 0L149 61.7Z" fill="#1a8018" stroke="#1a8018"></path><path d="M772 299.1L695 219.1L660 293.1Z" fill="#196d18" stroke="#196d18"></path><path d="M660 293.1L695 219.1L573 184.4Z" fill="#186718" stroke="#186718"></path><path d="M238 600L380 559.3L291 483.3Z" fill="#1a7a18" stroke="#1a7a18"></path><path d="M380 559.3L461 600L479 555.3Z" fill="#186718" stroke="#186718"></path><path d="M129 0L100 0L98 59.7Z" fill="#175a16" stroke="#175a16"></path><path d="M0 136.7L0 195.4L61 196.4Z" fill="#175a16" stroke="#175a16"></path><path d="M0 136.7L61 196.4L98 59.7Z" fill="#1a8018" stroke="#1a8018"></path><path d="M61 196.4L0 195.4L73 285.1Z" fill="#186017" stroke="#186017"></path><path d="M73 285.1L0 378.6L107 392.9Z" fill="#1a8618" stroke="#1a8618"></path><path d="M107 392.9L0 491.3L125 441.6Z" fill="#1a8018" stroke="#1a8018"></path><path d="M0 491.3L88 554.3L139 471.3Z" fill="#175416" stroke="#175416"></path><path d="M0 195.4L0 309.1L73 285.1Z" fill="#164e15" stroke="#164e15"></path><path d="M479 555.3L524 600L515 478.3Z" fill="#1a7a18" stroke="#1a7a18"></path><path d="M398 600L461 600L380 559.3Z" fill="#186718" stroke="#186718"></path><path d="M221 600L291 483.3L139 471.3Z" fill="#186017" stroke="#186017"></path><path d="M221 600L238 600L291 483.3Z" fill="#1a8d18" stroke="#1a8d18"></path><path d="M695 219.1L707 137.7L592 129.7Z" fill="#196d18" stroke="#196d18"></path><path d="M0 0L0 136.7L98 59.7Z" fill="#186718" stroke="#186718"></path><path d="M88 554.3L221 600L139 471.3Z" fill="#186718" stroke="#186718"></path><path d="M0 309.1L0 378.6L73 285.1Z" fill="#186718" stroke="#186718"></path><path d="M0 378.6L0 378.9L107 392.9Z" fill="#197318" stroke="#197318"></path><path d="M738 476.6L680 457.3L661 600Z" fill="#196d18" stroke="#196d18"></path><path d="M592 480.6L680 457.3L578 397.9Z" fill="#197318" stroke="#197318"></path><path d="M695 219.1L773 212.4L707 137.7Z" fill="#175416" stroke="#175416"></path><path d="M461 600L524 600L479 555.3Z" fill="#197318" stroke="#197318"></path><path d="M680 457.3L752 334.9L660 293.1Z" fill="#175a16" stroke="#175a16"></path><path d="M0 491.3L139 471.3L125 441.6Z" fill="#196d18" stroke="#196d18"></path><path d="M772 299.1L773 212.4L695 219.1Z" fill="#1a7a18" stroke="#1a7a18"></path><path d="M752 334.9L772 299.1L660 293.1Z" fill="#197318" stroke="#197318"></path><path d="M0 378.9L0 491.3L107 392.9Z" fill="#175a16" stroke="#175a16"></path><path d="M680 457.3L731 462.3L752 334.9Z" fill="#1a8018" stroke="#1a8018"></path><path d="M752 334.9L815 387.9L772 299.1Z" fill="#197318" stroke="#197318"></path><path d="M738 476.6L731 462.3L680 457.3Z" fill="#186017" stroke="#186017"></path><path d="M100 0L0 0L98 59.7Z" fill="#196d18" stroke="#196d18"></path><path d="M0 600L92 600L88 554.3Z" fill="#197318" stroke="#197318"></path><path d="M88 554.3L92 600L221 600Z" fill="#186017" stroke="#186017"></path><path d="M661 600L680 457.3L592 480.6Z" fill="#164e15" stroke="#164e15"></path><path d="M731 462.3L791 448.6L752 334.9Z" fill="#175a16" stroke="#175a16"></path><path d="M524 600L661 600L592 480.6Z" fill="#164e15" stroke="#164e15"></path><path d="M793 53.7L750 0L707 137.7Z" fill="#1a8618" stroke="#1a8618"></path><path d="M707 137.7L750 0L588 94.7Z" fill="#186017" stroke="#186017"></path><path d="M764 523.3L791 448.6L738 476.6Z" fill="#197318" stroke="#197318"></path><path d="M738 476.6L791 448.6L731 462.3Z" fill="#175416" stroke="#175416"></path><path d="M900 298.1L834 158.4L773 212.4Z" fill="#1a8618" stroke="#1a8618"></path><path d="M791 448.6L815 387.9L752 334.9Z" fill="#1a7a18" stroke="#1a7a18"></path><path d="M834 158.4L793 53.7L707 137.7Z" fill="#1a8d18" stroke="#1a8d18"></path><path d="M834 158.4L707 137.7L773 212.4Z" fill="#1a8d18" stroke="#1a8d18"></path><path d="M900 298.1L773 212.4L772 299.1Z" fill="#175416" stroke="#175416"></path><path d="M661 600L764 523.3L738 476.6Z" fill="#1a7a18" stroke="#1a7a18"></path><path d="M900 358.9L900 298.1L815 387.9Z" fill="#1a8018" stroke="#1a8018"></path><path d="M0 491.3L0 600L88 554.3Z" fill="#1a8018" stroke="#1a8018"></path><path d="M661 600L755 600L764 523.3Z" fill="#196d18" stroke="#196d18"></path><path d="M900 495.3L900 417.6L791 448.6Z" fill="#1a8d18" stroke="#1a8d18"></path><path d="M755 600L769 600L764 523.3Z" fill="#197318" stroke="#197318"></path><path d="M900 358.9L815 387.9L900 417.6Z" fill="#175a16" stroke="#175a16"></path><path d="M815 387.9L900 298.1L772 299.1Z" fill="#1a8618" stroke="#1a8618"></path><path d="M900 48.7L845 0L793 53.7Z" fill="#196d18" stroke="#196d18"></path><path d="M900 48.7L793 53.7L834 158.4Z" fill="#164e15" stroke="#164e15"></path><path d="M793 53.7L845 0L750 0Z" fill="#186017" stroke="#186017"></path><path d="M900 298.1L900 144.4L834 158.4Z" fill="#1a8d18" stroke="#1a8d18"></path><path d="M900 417.6L815 387.9L791 448.6Z" fill="#1a7a18" stroke="#1a7a18"></path><path d="M900 495.3L791 448.6L764 523.3Z" fill="#186718" stroke="#186718"></path><path d="M900 144.4L900 48.7L834 158.4Z" fill="#197318" stroke="#197318"></path><path d="M900 600L900 495.3L764 523.3Z" fill="#1a8018" stroke="#1a8018"></path><path d="M900 48.7L900 0L845 0Z" fill="#186017" stroke="#186017"></path><path d="M769 600L900 600L764 523.3Z" fill="#196d18" stroke="#196d18"></path></g></svg>