<svg id="visual" viewBox="0 0 450 900" width="450" height="900" xmlns="http://www.w3.org/2000/svg" xmlns:xlink="http://www.w3.org/1999/xlink" version="1.1"><g stroke-width="1" stroke-linejoin="bevel"><path d="M169 374L0 208L0 380Z" fill="#53de51" stroke="#53de51"></path><path d="M169 374L233 126L0 208Z" fill="#2c9928" stroke="#2c9928"></path><path d="M233 126L0 0L0 208Z" fill="#1e841b" stroke="#1e841b"></path><path d="M233 126L240 0L0 0Z" fill="#53de51" stroke="#53de51"></path><path d="M0 380L131 645L169 374Z" fill="#40bb3c" stroke="#40bb3c"></path><path d="M169 374L450 358L233 126Z" fill="#33a42f" stroke="#33a42f"></path><path d="M450 591L450 358L169 374Z" fill="#53de51" stroke="#53de51"></path><path d="M233 126L450 0L240 0Z" fill="#33a42f" stroke="#33a42f"></path><path d="M450 358L450 172L233 126Z" fill="#4dd24a" stroke="#4dd24a"></path><path d="M450 172L450 0L233 126Z" fill="#40bb3c" stroke="#40bb3c"></path><path d="M131 645L450 591L169 374Z" fill="#2c9928" stroke="#2c9928"></path><path d="M0 380L0 762L131 645Z" fill="#2c9928" stroke="#2c9928"></path><path d="M131 645L450 900L450 591Z" fill="#46c743" stroke="#46c743"></path><path d="M0 762L138 900L131 645Z" fill="#40bb3c" stroke="#40bb3c"></path><path d="M0 762L0 900L138 900Z" fill="#39b035" stroke="#39b035"></path><path d="M138 900L450 900L131 645Z" fill="#167914" stroke="#167914"></path></g></svg>