<svg id="visual" viewBox="0 0 900 600" width="900" height="600" xmlns="http://www.w3.org/2000/svg" xmlns:xlink="http://www.w3.org/1999/xlink" version="1.1"><g stroke-width="1" stroke-linejoin="bevel"><path d="M410 260L413 208L379 210Z" fill="#228b21" stroke="#228b21"></path><path d="M413 208L386 175L379 210Z" fill="#1e731d" stroke="#1e731d"></path><path d="M413 208L412 148L386 175Z" fill="#249723" stroke="#249723"></path><path d="M303 243L394 320L410 260Z" fill="#1e731d" stroke="#1e731d"></path><path d="M328 136L303 243L379 210Z" fill="#207f1f" stroke="#207f1f"></path><path d="M379 210L303 243L410 260Z" fill="#228b21" stroke="#228b21"></path><path d="M328 136L379 210L386 175Z" fill="#1f791e" stroke="#1f791e"></path><path d="M564 291L499 218L410 260Z" fill="#218520" stroke="#218520"></path><path d="M410 260L499 218L413 208Z" fill="#249723" stroke="#249723"></path><path d="M413 208L499 218L412 148Z" fill="#1b621a" stroke="#1b621a"></path><path d="M412 148L328 136L386 175Z" fill="#249723" stroke="#249723"></path><path d="M303 243L313 323L394 320Z" fill="#239122" stroke="#239122"></path><path d="M499 218L521 191L412 148Z" fill="#1c681b" stroke="#1c681b"></path><path d="M521 191L426 98L412 148Z" fill="#239122" stroke="#239122"></path><path d="M412 148L344 95L328 136Z" fill="#1e731d" stroke="#1e731d"></path><path d="M411 403L420 378L343 407Z" fill="#1f791e" stroke="#1f791e"></path><path d="M559 335L564 291L410 260Z" fill="#1d6e1c" stroke="#1d6e1c"></path><path d="M499 218L564 291L521 191Z" fill="#1f791e" stroke="#1f791e"></path><path d="M426 98L344 95L412 148Z" fill="#1e731d" stroke="#1e731d"></path><path d="M219 184L244 191L328 136Z" fill="#1b621a" stroke="#1b621a"></path><path d="M328 136L244 191L303 243Z" fill="#207f1f" stroke="#207f1f"></path><path d="M303 243L269 328L313 323Z" fill="#1f791e" stroke="#1f791e"></path><path d="M236 268L269 328L303 243Z" fill="#249723" stroke="#249723"></path><path d="M343 407L420 378L394 320Z" fill="#1f791e" stroke="#1f791e"></path><path d="M244 191L236 268L303 243Z" fill="#1a5d19" stroke="#1a5d19"></path><path d="M343 407L394 320L313 323Z" fill="#249723" stroke="#249723"></path><path d="M559 335L410 260L394 320Z" fill="#1a5d19" stroke="#1a5d19"></path><path d="M559 335L394 320L420 378Z" fill="#1c681b" stroke="#1c681b"></path><path d="M310 417L343 407L313 323Z" fill="#249723" stroke="#249723"></path><path d="M256 33L219 184L328 136Z" fill="#1a5d19" stroke="#1a5d19"></path><path d="M244 191L191 238L236 268Z" fill="#228b21" stroke="#228b21"></path><path d="M486 425L559 335L420 378Z" fill="#1d6e1c" stroke="#1d6e1c"></path><path d="M426 98L330 53L344 95Z" fill="#1f791e" stroke="#1f791e"></path><path d="M344 95L256 33L328 136Z" fill="#1a5d19" stroke="#1a5d19"></path><path d="M258 390L313 323L269 328Z" fill="#228b21" stroke="#228b21"></path><path d="M258 390L310 417L313 323Z" fill="#239122" stroke="#239122"></path><path d="M473 535L486 425L411 403Z" fill="#239122" stroke="#239122"></path><path d="M219 184L191 238L244 191Z" fill="#1c681b" stroke="#1c681b"></path><path d="M122 326L258 390L269 328Z" fill="#1f791e" stroke="#1f791e"></path><path d="M122 326L269 328L236 268Z" fill="#1b621a" stroke="#1b621a"></path><path d="M473 535L411 403L358 567Z" fill="#228b21" stroke="#228b21"></path><path d="M411 403L486 425L420 378Z" fill="#218520" stroke="#218520"></path><path d="M651 276L611 200L564 291Z" fill="#228b21" stroke="#228b21"></path><path d="M564 291L611 200L521 191Z" fill="#1a5d19" stroke="#1a5d19"></path><path d="M555 44L441 0L426 98Z" fill="#239122" stroke="#239122"></path><path d="M550 401L563 388L559 335Z" fill="#249723" stroke="#249723"></path><path d="M559 335L651 276L564 291Z" fill="#249723" stroke="#249723"></path><path d="M486 425L550 401L559 335Z" fill="#239122" stroke="#239122"></path><path d="M555 44L426 98L521 191Z" fill="#239122" stroke="#239122"></path><path d="M426 98L350 0L330 53Z" fill="#249723" stroke="#249723"></path><path d="M611 200L618 145L521 191Z" fill="#1a5d19" stroke="#1a5d19"></path><path d="M441 0L350 0L426 98Z" fill="#249723" stroke="#249723"></path><path d="M330 53L256 33L344 95Z" fill="#239122" stroke="#239122"></path><path d="M350 0L336 0L330 53Z" fill="#1d6e1c" stroke="#1d6e1c"></path><path d="M473 535L529 439L486 425Z" fill="#249723" stroke="#249723"></path><path d="M486 425L529 439L550 401Z" fill="#1d6e1c" stroke="#1d6e1c"></path><path d="M550 401L604 432L563 388Z" fill="#1f791e" stroke="#1f791e"></path><path d="M336 0L256 33L330 53Z" fill="#249723" stroke="#249723"></path><path d="M219 184L153 146L191 238Z" fill="#228b21" stroke="#228b21"></path><path d="M599 88L555 44L521 191Z" fill="#218520" stroke="#218520"></path><path d="M618 145L599 88L521 191Z" fill="#1d6e1c" stroke="#1d6e1c"></path><path d="M676 347L651 276L559 335Z" fill="#1b621a" stroke="#1b621a"></path><path d="M611 200L681 190L618 145Z" fill="#249723" stroke="#249723"></path><path d="M676 347L559 335L563 388Z" fill="#218520" stroke="#218520"></path><path d="M256 33L153 146L219 184Z" fill="#1e731d" stroke="#1e731d"></path><path d="M572 0L540 0L555 44Z" fill="#239122" stroke="#239122"></path><path d="M555 44L540 0L441 0Z" fill="#1b621a" stroke="#1b621a"></path><path d="M529 439L604 432L550 401Z" fill="#1e731d" stroke="#1e731d"></path><path d="M715 244L681 190L651 276Z" fill="#228b21" stroke="#228b21"></path><path d="M651 276L681 190L611 200Z" fill="#1d6e1c" stroke="#1d6e1c"></path><path d="M711 29L648 0L599 88Z" fill="#1e731d" stroke="#1e731d"></path><path d="M599 88L572 0L555 44Z" fill="#249723" stroke="#249723"></path><path d="M336 0L228 0L256 33Z" fill="#207f1f" stroke="#207f1f"></path><path d="M256 33L116 93L153 146Z" fill="#249723" stroke="#249723"></path><path d="M80 271L122 326L191 238Z" fill="#218520" stroke="#218520"></path><path d="M191 238L122 326L236 268Z" fill="#1d6e1c" stroke="#1d6e1c"></path><path d="M478 549L473 535L430 600Z" fill="#228b21" stroke="#228b21"></path><path d="M648 0L572 0L599 88Z" fill="#207f1f" stroke="#207f1f"></path><path d="M604 432L676 347L563 388Z" fill="#249723" stroke="#249723"></path><path d="M358 567L411 403L343 407Z" fill="#1f791e" stroke="#1f791e"></path><path d="M529 439L579 559L604 432Z" fill="#1e731d" stroke="#1e731d"></path><path d="M178 476L310 417L258 390Z" fill="#228b21" stroke="#228b21"></path><path d="M150 0L116 93L256 33Z" fill="#1a5d19" stroke="#1a5d19"></path><path d="M153 146L80 271L191 238Z" fill="#1d6e1c" stroke="#1d6e1c"></path><path d="M116 93L105 112L153 146Z" fill="#1b621a" stroke="#1b621a"></path><path d="M721 326L715 244L651 276Z" fill="#1a5d19" stroke="#1a5d19"></path><path d="M711 29L599 88L618 145Z" fill="#1f791e" stroke="#1f791e"></path><path d="M95 120L80 271L153 146Z" fill="#1b621a" stroke="#1b621a"></path><path d="M80 271L91 325L122 326Z" fill="#207f1f" stroke="#207f1f"></path><path d="M122 326L129 415L258 390Z" fill="#1a5d19" stroke="#1a5d19"></path><path d="M116 93L95 120L105 112Z" fill="#1b621a" stroke="#1b621a"></path><path d="M105 112L95 120L153 146Z" fill="#239122" stroke="#239122"></path><path d="M91 325L129 415L122 326Z" fill="#1f791e" stroke="#1f791e"></path><path d="M358 567L343 407L310 417Z" fill="#1f791e" stroke="#1f791e"></path><path d="M473 535L579 559L529 439Z" fill="#207f1f" stroke="#207f1f"></path><path d="M129 415L151 447L258 390Z" fill="#218520" stroke="#218520"></path><path d="M151 447L178 476L258 390Z" fill="#1a5d19" stroke="#1a5d19"></path><path d="M277 571L358 567L310 417Z" fill="#1e731d" stroke="#1e731d"></path><path d="M768 401L721 326L676 347Z" fill="#207f1f" stroke="#207f1f"></path><path d="M676 347L721 326L651 276Z" fill="#218520" stroke="#218520"></path><path d="M708 450L676 347L604 432Z" fill="#1c681b" stroke="#1c681b"></path><path d="M228 0L150 0L256 33Z" fill="#239122" stroke="#239122"></path><path d="M116 93L0 63L95 120Z" fill="#1c681b" stroke="#1c681b"></path><path d="M711 29L618 145L681 190Z" fill="#249723" stroke="#249723"></path><path d="M178 476L277 571L310 417Z" fill="#249723" stroke="#249723"></path><path d="M341 600L430 600L358 567Z" fill="#239122" stroke="#239122"></path><path d="M358 567L430 600L473 535Z" fill="#249723" stroke="#249723"></path><path d="M478 549L579 559L473 535Z" fill="#1e731d" stroke="#1e731d"></path><path d="M803 297L768 221L715 244Z" fill="#207f1f" stroke="#207f1f"></path><path d="M715 244L768 221L681 190Z" fill="#1f791e" stroke="#1f791e"></path><path d="M316 600L341 600L358 567Z" fill="#207f1f" stroke="#207f1f"></path><path d="M508 600L579 559L478 549Z" fill="#1c681b" stroke="#1c681b"></path><path d="M759 58L711 29L681 190Z" fill="#239122" stroke="#239122"></path><path d="M277 571L316 600L358 567Z" fill="#239122" stroke="#239122"></path><path d="M684 510L708 450L604 432Z" fill="#1e731d" stroke="#1e731d"></path><path d="M721 326L803 297L715 244Z" fill="#1a5d19" stroke="#1a5d19"></path><path d="M430 600L508 600L478 549Z" fill="#1a5d19" stroke="#1a5d19"></path><path d="M0 357L47 400L91 325Z" fill="#1a5d19" stroke="#1a5d19"></path><path d="M91 325L47 400L129 415Z" fill="#249723" stroke="#249723"></path><path d="M129 415L45 435L151 447Z" fill="#249723" stroke="#249723"></path><path d="M116 544L195 568L178 476Z" fill="#249723" stroke="#249723"></path><path d="M178 476L195 568L277 571Z" fill="#228b21" stroke="#228b21"></path><path d="M277 571L253 600L316 600Z" fill="#1d6e1c" stroke="#1d6e1c"></path><path d="M0 357L91 325L80 271Z" fill="#1b621a" stroke="#1b621a"></path><path d="M759 58L709 0L711 29Z" fill="#1b621a" stroke="#1b621a"></path><path d="M711 29L709 0L648 0Z" fill="#1c681b" stroke="#1c681b"></path><path d="M116 544L178 476L151 447Z" fill="#207f1f" stroke="#207f1f"></path><path d="M195 568L253 600L277 571Z" fill="#207f1f" stroke="#207f1f"></path><path d="M0 191L0 250L80 271Z" fill="#218520" stroke="#218520"></path><path d="M0 191L80 271L95 120Z" fill="#1d6e1c" stroke="#1d6e1c"></path><path d="M0 250L0 257L80 271Z" fill="#1c681b" stroke="#1c681b"></path><path d="M579 559L684 510L604 432Z" fill="#228b21" stroke="#228b21"></path><path d="M600 600L684 510L579 559Z" fill="#249723" stroke="#249723"></path><path d="M0 63L0 191L95 120Z" fill="#1d6e1c" stroke="#1d6e1c"></path><path d="M795 103L759 58L681 190Z" fill="#1f791e" stroke="#1f791e"></path><path d="M684 510L707 491L708 450Z" fill="#1c681b" stroke="#1c681b"></path><path d="M708 450L768 401L676 347Z" fill="#207f1f" stroke="#207f1f"></path><path d="M47 400L45 435L129 415Z" fill="#218520" stroke="#218520"></path><path d="M0 437L45 435L47 400Z" fill="#1a5d19" stroke="#1a5d19"></path><path d="M810 456L768 401L708 450Z" fill="#1e731d" stroke="#1e731d"></path><path d="M768 221L797 144L681 190Z" fill="#1e731d" stroke="#1e731d"></path><path d="M855 234L797 144L768 221Z" fill="#218520" stroke="#218520"></path><path d="M813 339L803 297L721 326Z" fill="#207f1f" stroke="#207f1f"></path><path d="M0 257L0 357L80 271Z" fill="#1d6e1c" stroke="#1d6e1c"></path><path d="M797 144L795 103L681 190Z" fill="#1e731d" stroke="#1e731d"></path><path d="M508 600L600 600L579 559Z" fill="#207f1f" stroke="#207f1f"></path><path d="M684 510L759 570L707 491Z" fill="#239122" stroke="#239122"></path><path d="M45 435L116 544L151 447Z" fill="#228b21" stroke="#228b21"></path><path d="M195 568L119 600L253 600Z" fill="#1e731d" stroke="#1e731d"></path><path d="M795 103L781 59L759 58Z" fill="#228b21" stroke="#228b21"></path><path d="M759 58L814 0L709 0Z" fill="#228b21" stroke="#228b21"></path><path d="M810 456L813 339L768 401Z" fill="#1f791e" stroke="#1f791e"></path><path d="M768 401L813 339L721 326Z" fill="#1f791e" stroke="#1f791e"></path><path d="M803 297L855 234L768 221Z" fill="#1f791e" stroke="#1f791e"></path><path d="M797 144L900 77L795 103Z" fill="#249723" stroke="#249723"></path><path d="M33 0L0 63L116 93Z" fill="#249723" stroke="#249723"></path><path d="M150 0L33 0L116 93Z" fill="#1a5d19" stroke="#1a5d19"></path><path d="M0 357L0 437L47 400Z" fill="#207f1f" stroke="#207f1f"></path><path d="M45 435L39 556L116 544Z" fill="#1c681b" stroke="#1c681b"></path><path d="M900 293L855 234L803 297Z" fill="#1f791e" stroke="#1f791e"></path><path d="M900 77L814 0L781 59Z" fill="#1f791e" stroke="#1f791e"></path><path d="M47 600L119 600L116 544Z" fill="#1d6e1c" stroke="#1d6e1c"></path><path d="M116 544L119 600L195 568Z" fill="#249723" stroke="#249723"></path><path d="M33 0L0 0L0 63Z" fill="#1f791e" stroke="#1f791e"></path><path d="M600 600L685 600L684 510Z" fill="#249723" stroke="#249723"></path><path d="M707 491L810 456L708 450Z" fill="#207f1f" stroke="#207f1f"></path><path d="M759 570L810 456L707 491Z" fill="#1b621a" stroke="#1b621a"></path><path d="M900 293L900 229L855 234Z" fill="#249723" stroke="#249723"></path><path d="M900 77L781 59L795 103Z" fill="#1a5d19" stroke="#1a5d19"></path><path d="M781 59L814 0L759 58Z" fill="#207f1f" stroke="#207f1f"></path><path d="M0 507L39 556L45 435Z" fill="#1c681b" stroke="#1c681b"></path><path d="M0 437L0 507L45 435Z" fill="#1b621a" stroke="#1b621a"></path><path d="M685 600L759 570L684 510Z" fill="#207f1f" stroke="#207f1f"></path><path d="M900 293L803 297L813 339Z" fill="#1f791e" stroke="#1f791e"></path><path d="M855 234L900 172L797 144Z" fill="#228b21" stroke="#228b21"></path><path d="M900 355L900 293L813 339Z" fill="#1c681b" stroke="#1c681b"></path><path d="M900 355L813 339L810 456Z" fill="#1d6e1c" stroke="#1d6e1c"></path><path d="M900 229L900 172L855 234Z" fill="#1c681b" stroke="#1c681b"></path><path d="M0 600L47 600L39 556Z" fill="#249723" stroke="#249723"></path><path d="M39 556L47 600L116 544Z" fill="#1c681b" stroke="#1c681b"></path><path d="M685 600L749 600L759 570Z" fill="#1d6e1c" stroke="#1d6e1c"></path><path d="M900 454L900 355L810 456Z" fill="#1d6e1c" stroke="#1d6e1c"></path><path d="M900 454L810 456L900 538Z" fill="#218520" stroke="#218520"></path><path d="M900 172L900 77L797 144Z" fill="#239122" stroke="#239122"></path><path d="M0 507L0 600L39 556Z" fill="#228b21" stroke="#228b21"></path><path d="M861 563L810 456L759 570Z" fill="#249723" stroke="#249723"></path><path d="M900 77L900 0L814 0Z" fill="#228b21" stroke="#228b21"></path><path d="M850 600L861 563L759 570Z" fill="#207f1f" stroke="#207f1f"></path><path d="M749 600L850 600L759 570Z" fill="#1a5d19" stroke="#1a5d19"></path><path d="M861 563L900 538L810 456Z" fill="#1b621a" stroke="#1b621a"></path><path d="M900 600L900 538L861 563Z" fill="#218520" stroke="#218520"></path><path d="M850 600L900 600L861 563Z" fill="#228b21" stroke="#228b21"></path></g></svg>