<svg id="visual" viewBox="0 0 600 900" width="600" height="900" xmlns="http://www.w3.org/2000/svg" xmlns:xlink="http://www.w3.org/1999/xlink" version="1.1"><g stroke-width="1" stroke-linejoin="bevel"><path d="M319.3 489L331.3 513.3L372 520.3Z" fill="#258f23" stroke="#258f23"></path><path d="M372 520.3L409 473L319.3 489Z" fill="#245923" stroke="#245923"></path><path d="M409 473L365.3 411.7L319.3 489Z" fill="#258724" stroke="#258724"></path><path d="M296.7 610.9L350.3 567.6L331.3 513.3Z" fill="#249f22" stroke="#249f22"></path><path d="M331.3 513.3L350.3 567.6L372 520.3Z" fill="#246123" stroke="#246123"></path><path d="M372 520.3L445.7 549.3L409 473Z" fill="#249f22" stroke="#249f22"></path><path d="M261.7 418L267.7 481.3L319.3 489Z" fill="#256924" stroke="#256924"></path><path d="M319.3 489L267.7 481.3L331.3 513.3Z" fill="#258724" stroke="#258724"></path><path d="M350.3 567.6L445.7 549.3L372 520.3Z" fill="#256924" stroke="#256924"></path><path d="M445.7 549.3L453.7 434L409 473Z" fill="#258724" stroke="#258724"></path><path d="M409 473L441 395.7L365.3 411.7Z" fill="#256924" stroke="#256924"></path><path d="M365.3 411.7L261.7 418L319.3 489Z" fill="#258724" stroke="#258724"></path><path d="M453.7 434L441 395.7L409 473Z" fill="#258724" stroke="#258724"></path><path d="M260.7 353.7L239 413L261.7 418Z" fill="#246123" stroke="#246123"></path><path d="M362 629.9L375.3 614.9L350.3 567.6Z" fill="#257824" stroke="#257824"></path><path d="M350.3 567.6L424 603.6L445.7 549.3Z" fill="#249f22" stroke="#249f22"></path><path d="M167.3 479L226 519.3L267.7 481.3Z" fill="#258724" stroke="#258724"></path><path d="M267.7 481.3L226 519.3L331.3 513.3Z" fill="#256924" stroke="#256924"></path><path d="M375.3 614.9L424 603.6L350.3 567.6Z" fill="#257824" stroke="#257824"></path><path d="M260.7 353.7L261.7 418L365.3 411.7Z" fill="#235222" stroke="#235222"></path><path d="M261.7 418L239 413L267.7 481.3Z" fill="#258f23" stroke="#258f23"></path><path d="M226 519.3L296.7 610.9L331.3 513.3Z" fill="#257024" stroke="#257024"></path><path d="M296.7 610.9L362 629.9L350.3 567.6Z" fill="#249f22" stroke="#249f22"></path><path d="M375.3 614.9L437.7 678.9L424 603.6Z" fill="#246123" stroke="#246123"></path><path d="M542.3 444L468.7 393.7L453.7 434Z" fill="#249723" stroke="#249723"></path><path d="M453.7 434L468.7 393.7L441 395.7Z" fill="#257824" stroke="#257824"></path><path d="M457.7 345.4L396 344.4L441 395.7Z" fill="#256924" stroke="#256924"></path><path d="M441 395.7L396 344.4L365.3 411.7Z" fill="#258f23" stroke="#258f23"></path><path d="M482.7 608.6L502.3 544.3L445.7 549.3Z" fill="#235222" stroke="#235222"></path><path d="M445.7 549.3L502.3 544.3L453.7 434Z" fill="#245923" stroke="#245923"></path><path d="M263.7 336.4L260.7 353.7L324.3 294.4Z" fill="#246123" stroke="#246123"></path><path d="M226 519.3L239.7 600.6L296.7 610.9Z" fill="#258f23" stroke="#258f23"></path><path d="M296.7 610.9L284.7 682.1L362 629.9Z" fill="#258024" stroke="#258024"></path><path d="M468.7 393.7L457.7 345.4L441 395.7Z" fill="#249f22" stroke="#249f22"></path><path d="M437.7 678.9L482.7 608.6L424 603.6Z" fill="#245923" stroke="#245923"></path><path d="M424 603.6L482.7 608.6L445.7 549.3Z" fill="#258724" stroke="#258724"></path><path d="M324.3 294.4L260.7 353.7L365.3 411.7Z" fill="#256924" stroke="#256924"></path><path d="M124.3 365.7L167.3 479L239 413Z" fill="#258f23" stroke="#258f23"></path><path d="M324.3 294.4L365.3 411.7L396 344.4Z" fill="#235222" stroke="#235222"></path><path d="M482.7 608.6L522.3 562.6L502.3 544.3Z" fill="#245923" stroke="#245923"></path><path d="M502.3 544.3L542.3 444L453.7 434Z" fill="#245923" stroke="#245923"></path><path d="M468.7 393.7L523.3 308.4L457.7 345.4Z" fill="#249f22" stroke="#249f22"></path><path d="M216 618.9L229 615.6L239.7 600.6Z" fill="#246123" stroke="#246123"></path><path d="M239.7 600.6L229 615.6L296.7 610.9Z" fill="#258724" stroke="#258724"></path><path d="M210 352.7L239 413L260.7 353.7Z" fill="#249f22" stroke="#249f22"></path><path d="M239 413L167.3 479L267.7 481.3Z" fill="#256924" stroke="#256924"></path><path d="M168.3 570.6L216 618.9L239.7 600.6Z" fill="#257024" stroke="#257024"></path><path d="M600 474L542.3 444L600 524.3Z" fill="#258024" stroke="#258024"></path><path d="M393 225.9L324.3 294.4L396 344.4Z" fill="#235222" stroke="#235222"></path><path d="M168.3 570.6L239.7 600.6L226 519.3Z" fill="#256924" stroke="#256924"></path><path d="M229 615.6L284.7 682.1L296.7 610.9Z" fill="#256924" stroke="#256924"></path><path d="M187 346.4L210 352.7L233.7 264.1Z" fill="#256924" stroke="#256924"></path><path d="M263.7 336.4L210 352.7L260.7 353.7Z" fill="#257824" stroke="#257824"></path><path d="M600 474L550.3 427.7L542.3 444Z" fill="#235222" stroke="#235222"></path><path d="M542.3 444L550.3 427.7L468.7 393.7Z" fill="#256924" stroke="#256924"></path><path d="M142.3 541.3L168.3 570.6L226 519.3Z" fill="#249723" stroke="#249723"></path><path d="M362 629.9L437.7 678.9L375.3 614.9Z" fill="#256924" stroke="#256924"></path><path d="M600 544.6L600 524.3L522.3 562.6Z" fill="#257024" stroke="#257024"></path><path d="M407 715.1L437.7 678.9L362 629.9Z" fill="#249f22" stroke="#249f22"></path><path d="M216 618.9L284.7 682.1L229 615.6Z" fill="#258f23" stroke="#258f23"></path><path d="M233.7 264.1L210 352.7L263.7 336.4Z" fill="#258024" stroke="#258024"></path><path d="M210 352.7L187 346.4L239 413Z" fill="#257024" stroke="#257024"></path><path d="M101.7 545.3L142.3 541.3L167.3 479Z" fill="#257024" stroke="#257024"></path><path d="M167.3 479L142.3 541.3L226 519.3Z" fill="#257824" stroke="#257824"></path><path d="M268.7 742.4L296.3 704.1L284.7 682.1Z" fill="#256924" stroke="#256924"></path><path d="M284.7 682.1L296.3 704.1L362 629.9Z" fill="#257824" stroke="#257824"></path><path d="M268.7 742.4L284.7 682.1L161 708.1Z" fill="#258024" stroke="#258024"></path><path d="M296.3 704.1L407 715.1L362 629.9Z" fill="#258f23" stroke="#258f23"></path><path d="M550.3 427.7L523.3 308.4L468.7 393.7Z" fill="#258f23" stroke="#258f23"></path><path d="M457.7 345.4L431.7 242.1L396 344.4Z" fill="#249f22" stroke="#249f22"></path><path d="M600 524.3L502.3 544.3L522.3 562.6Z" fill="#235222" stroke="#235222"></path><path d="M600 524.3L542.3 444L502.3 544.3Z" fill="#256924" stroke="#256924"></path><path d="M550.3 427.7L600 356.4L523.3 308.4Z" fill="#258f23" stroke="#258f23"></path><path d="M573.3 608.9L522.3 562.6L482.7 608.6Z" fill="#249f22" stroke="#249f22"></path><path d="M573.3 608.9L600 680.1L600 636.9Z" fill="#256924" stroke="#256924"></path><path d="M573.3 608.9L482.7 608.6L600 680.1Z" fill="#249723" stroke="#249723"></path><path d="M573.3 608.9L600 544.6L522.3 562.6Z" fill="#258724" stroke="#258724"></path><path d="M299.3 233.1L233.7 264.1L324.3 294.4Z" fill="#257824" stroke="#257824"></path><path d="M324.3 294.4L233.7 264.1L263.7 336.4Z" fill="#258f23" stroke="#258f23"></path><path d="M524.3 292.1L431.7 242.1L457.7 345.4Z" fill="#235222" stroke="#235222"></path><path d="M600 266.1L524.3 292.1L523.3 308.4Z" fill="#249723" stroke="#249723"></path><path d="M523.3 308.4L524.3 292.1L457.7 345.4Z" fill="#245923" stroke="#245923"></path><path d="M600 474L600 399.7L550.3 427.7Z" fill="#257024" stroke="#257024"></path><path d="M393 225.9L299.3 233.1L324.3 294.4Z" fill="#257024" stroke="#257024"></path><path d="M125.3 308.4L124.3 365.7L187 346.4Z" fill="#245923" stroke="#245923"></path><path d="M187 346.4L124.3 365.7L239 413Z" fill="#249723" stroke="#249723"></path><path d="M431.7 242.1L393 225.9L396 344.4Z" fill="#258024" stroke="#258024"></path><path d="M81.7 448L101.7 545.3L167.3 479Z" fill="#245923" stroke="#245923"></path><path d="M142.3 541.3L101.7 545.3L168.3 570.6Z" fill="#235222" stroke="#235222"></path><path d="M168.3 570.6L148.3 678.1L216 618.9Z" fill="#258724" stroke="#258724"></path><path d="M161 708.1L284.7 682.1L216 618.9Z" fill="#249723" stroke="#249723"></path><path d="M296.3 704.1L329.3 765.4L407 715.1Z" fill="#256924" stroke="#256924"></path><path d="M431.7 242.1L430 221.1L393 225.9Z" fill="#257024" stroke="#257024"></path><path d="M393 225.9L292.3 210.9L299.3 233.1Z" fill="#258024" stroke="#258024"></path><path d="M530.3 232.9L430 221.1L431.7 242.1Z" fill="#256924" stroke="#256924"></path><path d="M600 399.7L600 356.4L550.3 427.7Z" fill="#245923" stroke="#245923"></path><path d="M124.3 365.7L81.7 448L167.3 479Z" fill="#258024" stroke="#258024"></path><path d="M427 810.4L456.7 747.1L407 715.1Z" fill="#258f23" stroke="#258f23"></path><path d="M407 715.1L456.7 747.1L437.7 678.9Z" fill="#246123" stroke="#246123"></path><path d="M268.7 742.4L329.3 765.4L296.3 704.1Z" fill="#249f22" stroke="#249f22"></path><path d="M299.3 233.1L292.3 210.9L233.7 264.1Z" fill="#258724" stroke="#258724"></path><path d="M272.7 193.9L292.3 210.9L293.7 149.6Z" fill="#235222" stroke="#235222"></path><path d="M102.3 627.9L148.3 678.1L168.3 570.6Z" fill="#246123" stroke="#246123"></path><path d="M490.3 746.1L482.7 608.6L437.7 678.9Z" fill="#246123" stroke="#246123"></path><path d="M573.3 608.9L600 636.9L600 544.6Z" fill="#246123" stroke="#246123"></path><path d="M233.7 264.1L125.3 308.4L187 346.4Z" fill="#258024" stroke="#258024"></path><path d="M124.3 365.7L25.7 380.7L81.7 448Z" fill="#246123" stroke="#246123"></path><path d="M181 216.1L125.3 308.4L233.7 264.1Z" fill="#258724" stroke="#258724"></path><path d="M101.7 545.3L102.3 627.9L168.3 570.6Z" fill="#258f23" stroke="#258f23"></path><path d="M60.7 593.6L102.3 627.9L101.7 545.3Z" fill="#246123" stroke="#246123"></path><path d="M507.7 812.4L490.3 746.1L456.7 747.1Z" fill="#257824" stroke="#257824"></path><path d="M456.7 747.1L490.3 746.1L437.7 678.9Z" fill="#258724" stroke="#258724"></path><path d="M80.7 737.4L161 708.1L148.3 678.1Z" fill="#258f23" stroke="#258f23"></path><path d="M148.3 678.1L161 708.1L216 618.9Z" fill="#249723" stroke="#249723"></path><path d="M356.3 819.7L427 810.4L329.3 765.4Z" fill="#256924" stroke="#256924"></path><path d="M378 158.6L292.3 210.9L393 225.9Z" fill="#235222" stroke="#235222"></path><path d="M292.3 210.9L272.7 193.9L233.7 264.1Z" fill="#257024" stroke="#257024"></path><path d="M600 266.1L530.3 232.9L524.3 292.1Z" fill="#246123" stroke="#246123"></path><path d="M524.3 292.1L530.3 232.9L431.7 242.1Z" fill="#249f22" stroke="#249f22"></path><path d="M430 221.1L378 158.6L393 225.9Z" fill="#246123" stroke="#246123"></path><path d="M490.3 746.1L600 680.1L482.7 608.6Z" fill="#257024" stroke="#257024"></path><path d="M0 497.3L60.7 593.6L101.7 545.3Z" fill="#246123" stroke="#246123"></path><path d="M102.3 627.9L79.7 663.9L148.3 678.1Z" fill="#245923" stroke="#245923"></path><path d="M272.7 193.9L181 216.1L233.7 264.1Z" fill="#246123" stroke="#246123"></path><path d="M600 356.4L600 266.1L523.3 308.4Z" fill="#249f22" stroke="#249f22"></path><path d="M443.7 167.9L430 221.1L530.3 232.9Z" fill="#258024" stroke="#258024"></path><path d="M443.7 167.9L378 158.6L430 221.1Z" fill="#258f23" stroke="#258f23"></path><path d="M272.7 193.9L186 164.9L181 216.1Z" fill="#245923" stroke="#245923"></path><path d="M507.7 812.4L561.3 743.4L490.3 746.1Z" fill="#245923" stroke="#245923"></path><path d="M490.3 746.1L561.3 743.4L600 680.1Z" fill="#257024" stroke="#257024"></path><path d="M425.7 146.6L443.7 167.9L529.3 111.6Z" fill="#257824" stroke="#257824"></path><path d="M60.7 593.6L79.7 663.9L102.3 627.9Z" fill="#258724" stroke="#258724"></path><path d="M356.3 819.7L329.3 765.4L253.7 853.7Z" fill="#249f22" stroke="#249f22"></path><path d="M329.3 765.4L427 810.4L407 715.1Z" fill="#245923" stroke="#245923"></path><path d="M231 810.4L329.3 765.4L268.7 742.4Z" fill="#258024" stroke="#258024"></path><path d="M231 810.4L268.7 742.4L170.3 780.4Z" fill="#245923" stroke="#245923"></path><path d="M347.3 40.3L326.3 148.6L378 158.6Z" fill="#258f23" stroke="#258f23"></path><path d="M378 158.6L326.3 148.6L292.3 210.9Z" fill="#256924" stroke="#256924"></path><path d="M326.3 148.6L293.7 149.6L292.3 210.9Z" fill="#235222" stroke="#235222"></path><path d="M125.3 176.9L118.3 237.1L181 216.1Z" fill="#249f22" stroke="#249f22"></path><path d="M181 216.1L118.3 237.1L125.3 308.4Z" fill="#258024" stroke="#258024"></path><path d="M125.3 308.4L46.7 330.4L124.3 365.7Z" fill="#258724" stroke="#258724"></path><path d="M529.3 111.6L443.7 167.9L530.3 232.9Z" fill="#249723" stroke="#249723"></path><path d="M443.7 167.9L425.7 146.6L378 158.6Z" fill="#258024" stroke="#258024"></path><path d="M57.7 284.1L46.7 330.4L125.3 308.4Z" fill="#257024" stroke="#257024"></path><path d="M81.7 448L0 497.3L101.7 545.3Z" fill="#256924" stroke="#256924"></path><path d="M46.7 330.4L25.7 380.7L124.3 365.7Z" fill="#235222" stroke="#235222"></path><path d="M170.3 780.4L268.7 742.4L161 708.1Z" fill="#257024" stroke="#257024"></path><path d="M80.7 737.4L170.3 780.4L161 708.1Z" fill="#257824" stroke="#257824"></path><path d="M368 900L433 833.7L356.3 819.7Z" fill="#245923" stroke="#245923"></path><path d="M356.3 819.7L433 833.7L427 810.4Z" fill="#235222" stroke="#235222"></path><path d="M427 810.4L507.7 812.4L456.7 747.1Z" fill="#257024" stroke="#257024"></path><path d="M0 459L0 497.3L81.7 448Z" fill="#257024" stroke="#257024"></path><path d="M60.7 593.6L43.7 673.1L79.7 663.9Z" fill="#256924" stroke="#256924"></path><path d="M433 833.7L442.7 832.7L427 810.4Z" fill="#258024" stroke="#258024"></path><path d="M0 405.7L0 459L81.7 448Z" fill="#249f22" stroke="#249f22"></path><path d="M442.7 832.7L507.7 812.4L427 810.4Z" fill="#258024" stroke="#258024"></path><path d="M118.3 237.1L57.7 284.1L125.3 308.4Z" fill="#257024" stroke="#257024"></path><path d="M0 314.4L0 405.7L25.7 380.7Z" fill="#245923" stroke="#245923"></path><path d="M293.7 149.6L186 164.9L272.7 193.9Z" fill="#246123" stroke="#246123"></path><path d="M0 230.9L0 238.1L57.7 284.1Z" fill="#246123" stroke="#246123"></path><path d="M507.7 812.4L600 756.4L561.3 743.4Z" fill="#257024" stroke="#257024"></path><path d="M561.3 743.4L600 756.4L600 680.1Z" fill="#258724" stroke="#258724"></path><path d="M600 266.1L600 213.9L530.3 232.9Z" fill="#257824" stroke="#257824"></path><path d="M0 606.9L43.7 673.1L60.7 593.6Z" fill="#249723" stroke="#249723"></path><path d="M79.7 663.9L80.7 737.4L148.3 678.1Z" fill="#256924" stroke="#256924"></path><path d="M0 314.4L25.7 380.7L46.7 330.4Z" fill="#235222" stroke="#235222"></path><path d="M25.7 380.7L0 405.7L81.7 448Z" fill="#258724" stroke="#258724"></path><path d="M43.7 673.1L80.7 737.4L79.7 663.9Z" fill="#249723" stroke="#249723"></path><path d="M237 859.7L253.7 853.7L231 810.4Z" fill="#256924" stroke="#256924"></path><path d="M0 497.3L0 606.6L60.7 593.6Z" fill="#258724" stroke="#258724"></path><path d="M43.7 673.1L0 717.1L80.7 737.4Z" fill="#245923" stroke="#245923"></path><path d="M0 606.6L0 606.9L60.7 593.6Z" fill="#258724" stroke="#258724"></path><path d="M147.3 111.6L181 148.6L178 94.3Z" fill="#258024" stroke="#258024"></path><path d="M293.7 149.6L181 148.6L186 164.9Z" fill="#258024" stroke="#258024"></path><path d="M186 164.9L125.3 176.9L181 216.1Z" fill="#249723" stroke="#249723"></path><path d="M181 148.6L293.7 149.6L178 94.3Z" fill="#258f23" stroke="#258f23"></path><path d="M237 859.7L231 810.4L127.3 821.7Z" fill="#249723" stroke="#249723"></path><path d="M231 810.4L253.7 853.7L329.3 765.4Z" fill="#256924" stroke="#256924"></path><path d="M433 833.7L425.7 900L442.7 832.7Z" fill="#258724" stroke="#258724"></path><path d="M181 148.6L125.3 176.9L186 164.9Z" fill="#246123" stroke="#246123"></path><path d="M127.3 821.7L231 810.4L170.3 780.4Z" fill="#258024" stroke="#258024"></path><path d="M334.3 900L368 900L356.3 819.7Z" fill="#258f23" stroke="#258f23"></path><path d="M0 238.1L0 314.4L57.7 284.1Z" fill="#257824" stroke="#257824"></path><path d="M57.7 284.1L0 314.4L46.7 330.4Z" fill="#245923" stroke="#245923"></path><path d="M27.7 849.7L127.3 821.7L80.7 737.4Z" fill="#235222" stroke="#235222"></path><path d="M80.7 737.4L127.3 821.7L170.3 780.4Z" fill="#245923" stroke="#245923"></path><path d="M600 152.6L529.3 111.6L530.3 232.9Z" fill="#256924" stroke="#256924"></path><path d="M368 33.3L347.3 40.3L378 158.6Z" fill="#249f22" stroke="#249f22"></path><path d="M600 213.9L600 152.6L530.3 232.9Z" fill="#249723" stroke="#249723"></path><path d="M334.3 900L356.3 819.7L253.7 853.7Z" fill="#258024" stroke="#258024"></path><path d="M524.3 900L546.3 870.7L507.7 812.4Z" fill="#257024" stroke="#257024"></path><path d="M507.7 812.4L600 867.7L600 756.4Z" fill="#257824" stroke="#257824"></path><path d="M235.7 900L334.3 900L253.7 853.7Z" fill="#258724" stroke="#258724"></path><path d="M235.7 900L253.7 853.7L237 859.7Z" fill="#256924" stroke="#256924"></path><path d="M368 900L425.7 900L433 833.7Z" fill="#246123" stroke="#246123"></path><path d="M0 606.9L0 717.1L43.7 673.1Z" fill="#257824" stroke="#257824"></path><path d="M178 94.3L293.7 149.6L262.7 37.3Z" fill="#258f23" stroke="#258f23"></path><path d="M181 148.6L147.3 111.6L125.3 176.9Z" fill="#246123" stroke="#246123"></path><path d="M0 230.9L57.7 284.1L47.7 171.9Z" fill="#249723" stroke="#249723"></path><path d="M524.3 900L507.7 812.4L442.7 832.7Z" fill="#257024" stroke="#257024"></path><path d="M347.3 40.3L293.7 149.6L326.3 148.6Z" fill="#246123" stroke="#246123"></path><path d="M209 900L235.7 900L237 859.7Z" fill="#245923" stroke="#245923"></path><path d="M57.7 284.1L118.3 237.1L47.7 171.9Z" fill="#235222" stroke="#235222"></path><path d="M495.3 52.3L444.7 59.3L529.3 111.6Z" fill="#256924" stroke="#256924"></path><path d="M529.3 111.6L444.7 59.3L425.7 146.6Z" fill="#258024" stroke="#258024"></path><path d="M47.7 171.9L118.3 237.1L125.3 176.9Z" fill="#257024" stroke="#257024"></path><path d="M127.3 821.7L209 900L237 859.7Z" fill="#235222" stroke="#235222"></path><path d="M109.3 900L209 900L127.3 821.7Z" fill="#258724" stroke="#258724"></path><path d="M80.7 118.6L47.7 171.9L125.3 176.9Z" fill="#257024" stroke="#257024"></path><path d="M368 33.3L378 158.6L425.7 146.6Z" fill="#246123" stroke="#246123"></path><path d="M425.7 900L524.3 900L442.7 832.7Z" fill="#249f22" stroke="#249f22"></path><path d="M444.7 59.3L368 33.3L425.7 146.6Z" fill="#257824" stroke="#257824"></path><path d="M347.3 40.3L262.7 37.3L293.7 149.6Z" fill="#235222" stroke="#235222"></path><path d="M600 900L600 867.7L546.3 870.7Z" fill="#258f23" stroke="#258f23"></path><path d="M546.3 870.7L600 867.7L507.7 812.4Z" fill="#257024" stroke="#257024"></path><path d="M565.3 0L495.3 52.3L529.3 111.6Z" fill="#235222" stroke="#235222"></path><path d="M444.7 59.3L403 0L368 33.3Z" fill="#246123" stroke="#246123"></path><path d="M600 152.6L600 97.3L529.3 111.6Z" fill="#245923" stroke="#245923"></path><path d="M89.7 75.3L80.7 118.6L147.3 111.6Z" fill="#258024" stroke="#258024"></path><path d="M147.3 111.6L80.7 118.6L125.3 176.9Z" fill="#257824" stroke="#257824"></path><path d="M325.3 0L262.7 37.3L347.3 40.3Z" fill="#257824" stroke="#257824"></path><path d="M0 717.1L0 772.4L80.7 737.4Z" fill="#258f23" stroke="#258f23"></path><path d="M89.7 75.3L147.3 111.6L92.3 48.3Z" fill="#257024" stroke="#257024"></path><path d="M47.7 171.9L0 150.6L0 230.9Z" fill="#258f23" stroke="#258f23"></path><path d="M524.3 900L600 900L546.3 870.7Z" fill="#235222" stroke="#235222"></path><path d="M82.7 900L109.3 900L127.3 821.7Z" fill="#258724" stroke="#258724"></path><path d="M403 0L325.3 0L368 33.3Z" fill="#258024" stroke="#258024"></path><path d="M368 33.3L325.3 0L347.3 40.3Z" fill="#249f22" stroke="#249f22"></path><path d="M92.3 48.3L147.3 111.6L178 94.3Z" fill="#249723" stroke="#249723"></path><path d="M457.7 0L403 0L444.7 59.3Z" fill="#246123" stroke="#246123"></path><path d="M457.7 0L444.7 59.3L495.3 52.3Z" fill="#249f22" stroke="#249f22"></path><path d="M0 79.3L0 150.6L80.7 118.6Z" fill="#246123" stroke="#246123"></path><path d="M80.7 118.6L0 150.6L47.7 171.9Z" fill="#249f22" stroke="#249f22"></path><path d="M234.7 0L178 94.3L262.7 37.3Z" fill="#256924" stroke="#256924"></path><path d="M0 772.4L27.7 849.7L80.7 737.4Z" fill="#235222" stroke="#235222"></path><path d="M565.3 0L457.7 0L495.3 52.3Z" fill="#258724" stroke="#258724"></path><path d="M27.7 849.7L82.7 900L127.3 821.7Z" fill="#235222" stroke="#235222"></path><path d="M325.3 0L234.7 0L262.7 37.3Z" fill="#246123" stroke="#246123"></path><path d="M148.3 0L92.3 48.3L178 94.3Z" fill="#256924" stroke="#256924"></path><path d="M89.7 75.3L0 79.3L80.7 118.6Z" fill="#249723" stroke="#249723"></path><path d="M234.7 0L175 0L178 94.3Z" fill="#258f23" stroke="#258f23"></path><path d="M0 772.4L0 869.7L27.7 849.7Z" fill="#249723" stroke="#249723"></path><path d="M27.7 849.7L0 900L82.7 900Z" fill="#249f22" stroke="#249f22"></path><path d="M600 97.3L565.3 0L529.3 111.6Z" fill="#257824" stroke="#257824"></path><path d="M175 0L148.3 0L178 94.3Z" fill="#245923" stroke="#245923"></path><path d="M0 0L0 79.3L92.3 48.3Z" fill="#258f23" stroke="#258f23"></path><path d="M92.3 48.3L0 79.3L89.7 75.3Z" fill="#249723" stroke="#249723"></path><path d="M600 97.3L600 0L565.3 0Z" fill="#258f23" stroke="#258f23"></path><path d="M0 869.7L0 900L27.7 849.7Z" fill="#257024" stroke="#257024"></path><path d="M148.3 0L104.7 0L92.3 48.3Z" fill="#257024" stroke="#257024"></path><path d="M104.7 0L0 0L92.3 48.3Z" fill="#258724" stroke="#258724"></path></g></svg>