<svg id="visual" viewBox="0 0 960 540" width="960" height="540" xmlns="http://www.w3.org/2000/svg" xmlns:xlink="http://www.w3.org/1999/xlink" version="1.1"><path d="M0 33L960 39L960 0L0 0Z" fill="#f4f4f4"></path><path d="M0 77L960 87L960 37L0 31Z" fill="#f7f7f7"></path><path d="M0 114L960 114L960 85L0 75Z" fill="#fafafa"></path><path d="M0 233L960 195L960 112L0 112Z" fill="#fefefe"></path><path d="M0 271L960 228L960 193L0 231Z" fill="#ffffff"></path><path d="M0 395L960 357L960 226L0 269Z" fill="#fefefe"></path><path d="M0 422L960 390L960 355L0 393Z" fill="#fafafa"></path><path d="M0 482L960 482L960 388L0 420Z" fill="#f7f7f7"></path><path d="M0 541L960 541L960 480L0 480Z" fill="#f4f4f4"></path></svg>